<mxfile host="65bd71144e">
    <diagram name="Page-1" id="LUboGaUDFJcz9n9VFNqY">
        <mxGraphModel dx="1256" dy="278" grid="1" gridSize="10" guides="1" tooltips="1" connect="1" arrows="1" fold="1" page="1" pageScale="1" pageWidth="850" pageHeight="1100" math="0" shadow="0">
            <root>
                <mxCell id="0"/>
                <mxCell id="1" parent="0"/>
                <mxCell id="LZFOruKKCX2UdWkoUHdO-19" style="edgeStyle=orthogonalEdgeStyle;rounded=0;orthogonalLoop=1;jettySize=auto;html=1;exitX=0.75;exitY=1;exitDx=0;exitDy=0;entryX=0.25;entryY=0;entryDx=0;entryDy=0;noJump=0;jumpStyle=none;dashed=1;" parent="1" source="JThwmtuQTnnpR4SAIkMF-2" target="02BFiXAFzsQtkcaQQJPB-17" edge="1">
                    <mxGeometry relative="1" as="geometry"/>
                </mxCell>
                <mxCell id="02BFiXAFzsQtkcaQQJPB-13" style="edgeStyle=orthogonalEdgeStyle;rounded=0;orthogonalLoop=1;jettySize=auto;html=1;exitX=0.75;exitY=1;exitDx=0;exitDy=0;entryX=0.5;entryY=0;entryDx=0;entryDy=0;" parent="1" source="02BFiXAFzsQtkcaQQJPB-1" target="02BFiXAFzsQtkcaQQJPB-81" edge="1">
                    <mxGeometry relative="1" as="geometry">
                        <mxPoint x="555" y="430" as="targetPoint"/>
                    </mxGeometry>
                </mxCell>
                <mxCell id="02BFiXAFzsQtkcaQQJPB-67" style="edgeStyle=orthogonalEdgeStyle;rounded=0;orthogonalLoop=1;jettySize=auto;html=1;exitX=0.25;exitY=1;exitDx=0;exitDy=0;entryX=0.5;entryY=0;entryDx=0;entryDy=0;" parent="1" source="02BFiXAFzsQtkcaQQJPB-1" target="02BFiXAFzsQtkcaQQJPB-66" edge="1">
                    <mxGeometry relative="1" as="geometry"/>
                </mxCell>
                <mxCell id="02BFiXAFzsQtkcaQQJPB-1" value="quadlets-hostwatch.target&lt;div&gt;(&lt;span style=&quot;background-color: transparent; color: light-dark(rgb(0, 0, 0), rgb(255, 255, 255));&quot;&gt;hostwatched&amp;nbsp;&lt;/span&gt;&lt;span style=&quot;background-color: transparent; color: light-dark(rgb(0, 0, 0), rgb(255, 255, 255));&quot;&gt;quadlets)&lt;/span&gt;&lt;/div&gt;" style="rounded=1;whiteSpace=wrap;html=1;fillColor=#d5e8d4;strokeColor=#82b366;fillStyle=solid;" parent="1" vertex="1">
                    <mxGeometry x="265" y="320" width="160" height="60" as="geometry"/>
                </mxCell>
                <mxCell id="LZFOruKKCX2UdWkoUHdO-13" style="edgeStyle=orthogonalEdgeStyle;rounded=0;orthogonalLoop=1;jettySize=auto;html=1;exitX=0.5;exitY=1;exitDx=0;exitDy=0;entryX=0.5;entryY=0;entryDx=0;entryDy=0;" parent="1" source="02BFiXAFzsQtkcaQQJPB-2" target="02BFiXAFzsQtkcaQQJPB-72" edge="1">
                    <mxGeometry relative="1" as="geometry"/>
                </mxCell>
                <mxCell id="LZFOruKKCX2UdWkoUHdO-24" style="edgeStyle=orthogonalEdgeStyle;rounded=0;orthogonalLoop=1;jettySize=auto;html=1;exitX=0.25;exitY=1;exitDx=0;exitDy=0;entryX=0.5;entryY=0;entryDx=0;entryDy=0;" parent="1" source="02BFiXAFzsQtkcaQQJPB-2" target="02BFiXAFzsQtkcaQQJPB-97" edge="1">
                    <mxGeometry relative="1" as="geometry"/>
                </mxCell>
                <mxCell id="02BFiXAFzsQtkcaQQJPB-2" value="quadlets-meta.target&lt;div&gt;(all quadlets)&lt;/div&gt;" style="rounded=1;whiteSpace=wrap;html=1;fillColor=#d5e8d4;strokeColor=#82b366;" parent="1" vertex="1">
                    <mxGeometry x="160" y="70" width="160" height="60" as="geometry"/>
                </mxCell>
                <mxCell id="02BFiXAFzsQtkcaQQJPB-104" style="edgeStyle=orthogonalEdgeStyle;rounded=0;orthogonalLoop=1;jettySize=auto;html=1;exitX=0.5;exitY=1;exitDx=0;exitDy=0;entryX=0.5;entryY=0;entryDx=0;entryDy=0;" parent="1" source="02BFiXAFzsQtkcaQQJPB-7" target="02BFiXAFzsQtkcaQQJPB-82" edge="1">
                    <mxGeometry relative="1" as="geometry"/>
                </mxCell>
                <mxCell id="02BFiXAFzsQtkcaQQJPB-7" value="quadlets-hostwatch.path" style="rounded=1;whiteSpace=wrap;html=1;fillColor=#dae8fc;strokeColor=#6c8ebf;" parent="1" vertex="1">
                    <mxGeometry x="420" y="500" width="160" height="60" as="geometry"/>
                </mxCell>
                <mxCell id="02BFiXAFzsQtkcaQQJPB-14" style="edgeStyle=orthogonalEdgeStyle;rounded=0;orthogonalLoop=1;jettySize=auto;html=1;exitX=0.5;exitY=1;exitDx=0;exitDy=0;entryX=0.5;entryY=0;entryDx=0;entryDy=0;" parent="1" source="02BFiXAFzsQtkcaQQJPB-81" target="02BFiXAFzsQtkcaQQJPB-7" edge="1">
                    <mxGeometry relative="1" as="geometry">
                        <mxPoint x="555" y="470" as="sourcePoint"/>
                    </mxGeometry>
                </mxCell>
                <mxCell id="02BFiXAFzsQtkcaQQJPB-79" style="edgeStyle=orthogonalEdgeStyle;rounded=0;orthogonalLoop=1;jettySize=auto;html=1;exitX=0.75;exitY=1;exitDx=0;exitDy=0;" parent="1" source="02BFiXAFzsQtkcaQQJPB-17" target="02BFiXAFzsQtkcaQQJPB-76" edge="1">
                    <mxGeometry relative="1" as="geometry"/>
                </mxCell>
                <mxCell id="02BFiXAFzsQtkcaQQJPB-17" value="container.service&lt;br&gt;&lt;div&gt;(Needs Network)&lt;/div&gt;" style="rounded=1;whiteSpace=wrap;html=1;fillColor=#f5f5f5;strokeColor=#666666;fontColor=#333333;" parent="1" vertex="1">
                    <mxGeometry x="210" y="500" width="160" height="60" as="geometry"/>
                </mxCell>
                <mxCell id="02BFiXAFzsQtkcaQQJPB-88" style="edgeStyle=orthogonalEdgeStyle;rounded=0;orthogonalLoop=1;jettySize=auto;html=1;exitX=0.5;exitY=0;exitDx=0;exitDy=0;entryX=0.5;entryY=1;entryDx=0;entryDy=0;" parent="1" source="02BFiXAFzsQtkcaQQJPB-20" target="02BFiXAFzsQtkcaQQJPB-87" edge="1">
                    <mxGeometry relative="1" as="geometry"/>
                </mxCell>
                <mxCell id="02BFiXAFzsQtkcaQQJPB-20" value="quadlets-hostwatch.service" style="rounded=1;whiteSpace=wrap;html=1;fillColor=#ffe6cc;strokeColor=#d79b00;" parent="1" vertex="1">
                    <mxGeometry x="610" y="480" width="160" height="60" as="geometry"/>
                </mxCell>
                <mxCell id="02BFiXAFzsQtkcaQQJPB-68" style="edgeStyle=orthogonalEdgeStyle;rounded=0;orthogonalLoop=1;jettySize=auto;html=1;exitX=0.5;exitY=1;exitDx=0;exitDy=0;entryX=0.5;entryY=0;entryDx=0;entryDy=0;" parent="1" source="02BFiXAFzsQtkcaQQJPB-66" target="02BFiXAFzsQtkcaQQJPB-17" edge="1">
                    <mxGeometry relative="1" as="geometry"/>
                </mxCell>
                <mxCell id="02BFiXAFzsQtkcaQQJPB-66" value="&lt;div&gt;&lt;font style=&quot;font-size: 11px;&quot;&gt;&lt;span style=&quot;background-color: transparent; color: light-dark(rgb(0, 0, 0), rgb(255, 255, 255));&quot;&gt;↓&lt;/span&gt;WantedBy (Start)&lt;/font&gt;&lt;/div&gt;&lt;div&gt;&lt;font style=&quot;font-size: 11px;&quot;&gt;&lt;span style=&quot;background-color: transparent; color: light-dark(rgb(0, 0, 0), rgb(255, 255, 255));&quot;&gt;↓&lt;/span&gt;PartOf (Stop/Restart)&lt;/font&gt;&lt;/div&gt;" style="shape=process;whiteSpace=wrap;html=1;backgroundOutline=1;" parent="1" vertex="1">
                    <mxGeometry x="250" y="410" width="145" height="40" as="geometry"/>
                </mxCell>
                <mxCell id="LZFOruKKCX2UdWkoUHdO-14" style="edgeStyle=orthogonalEdgeStyle;rounded=0;orthogonalLoop=1;jettySize=auto;html=1;exitX=0.75;exitY=1;exitDx=0;exitDy=0;entryX=0.5;entryY=0;entryDx=0;entryDy=0;" parent="1" source="02BFiXAFzsQtkcaQQJPB-72" target="02BFiXAFzsQtkcaQQJPB-1" edge="1">
                    <mxGeometry relative="1" as="geometry"/>
                </mxCell>
                <mxCell id="LZFOruKKCX2UdWkoUHdO-15" style="edgeStyle=orthogonalEdgeStyle;rounded=0;orthogonalLoop=1;jettySize=auto;html=1;exitX=0.25;exitY=1;exitDx=0;exitDy=0;" parent="1" source="02BFiXAFzsQtkcaQQJPB-72" target="LZFOruKKCX2UdWkoUHdO-1" edge="1">
                    <mxGeometry relative="1" as="geometry"/>
                </mxCell>
                <mxCell id="02BFiXAFzsQtkcaQQJPB-72" value="&lt;div&gt;&lt;font style=&quot;font-size: 11px;&quot;&gt;&lt;span style=&quot;background-color: transparent; color: light-dark(rgb(0, 0, 0), rgb(255, 255, 255));&quot;&gt;↑&lt;/span&gt;Wants (Start)&lt;/font&gt;&lt;/div&gt;&lt;div&gt;&lt;span style=&quot;font-size: 11px; background-color: transparent; color: light-dark(rgb(0, 0, 0), rgb(255, 255, 255));&quot;&gt;↓&lt;/span&gt;&lt;span style=&quot;font-size: 11px; background-color: transparent; color: light-dark(rgb(0, 0, 0), rgb(255, 255, 255));&quot;&gt;PartOf (Stop/Restart)&lt;/span&gt;&lt;/div&gt;" style="shape=process;whiteSpace=wrap;html=1;backgroundOutline=1;" parent="1" vertex="1">
                    <mxGeometry x="165" y="190" width="150" height="40" as="geometry"/>
                </mxCell>
                <mxCell id="02BFiXAFzsQtkcaQQJPB-85" style="edgeStyle=orthogonalEdgeStyle;rounded=0;orthogonalLoop=1;jettySize=auto;html=1;exitX=1;exitY=0.5;exitDx=0;exitDy=0;entryX=0.5;entryY=1;entryDx=0;entryDy=0;" parent="1" source="02BFiXAFzsQtkcaQQJPB-74" target="02BFiXAFzsQtkcaQQJPB-84" edge="1">
                    <mxGeometry relative="1" as="geometry"/>
                </mxCell>
                <mxCell id="02BFiXAFzsQtkcaQQJPB-74" value="&lt;div&gt;/etc/hostname&lt;/div&gt;&lt;div&gt;/etc/hosts&lt;/div&gt;&lt;div&gt;/etc/localtime&lt;/div&gt;&lt;div&gt;/etc/resolv.conf&lt;/div&gt;" style="whiteSpace=wrap;html=1;aspect=fixed;" parent="1" vertex="1">
                    <mxGeometry x="505" y="680" width="90" height="90" as="geometry"/>
                </mxCell>
                <mxCell id="02BFiXAFzsQtkcaQQJPB-116" style="edgeStyle=orthogonalEdgeStyle;rounded=0;orthogonalLoop=1;jettySize=auto;html=1;exitX=0.5;exitY=1;exitDx=0;exitDy=0;entryX=0;entryY=0.5;entryDx=0;entryDy=0;" parent="1" source="02BFiXAFzsQtkcaQQJPB-76" target="02BFiXAFzsQtkcaQQJPB-74" edge="1">
                    <mxGeometry relative="1" as="geometry"/>
                </mxCell>
                <mxCell id="02BFiXAFzsQtkcaQQJPB-76" value="Needs" style="rhombus;whiteSpace=wrap;html=1;" parent="1" vertex="1">
                    <mxGeometry x="355" y="630" width="90" height="40" as="geometry"/>
                </mxCell>
                <mxCell id="02BFiXAFzsQtkcaQQJPB-81" value="&lt;span style=&quot;font-size: 11px;&quot;&gt;↑&lt;/span&gt;Upholds&lt;div&gt;(Never Stop)&lt;/div&gt;" style="shape=process;whiteSpace=wrap;html=1;backgroundOutline=1;" parent="1" vertex="1">
                    <mxGeometry x="455" y="420" width="90" height="40" as="geometry"/>
                </mxCell>
                <mxCell id="02BFiXAFzsQtkcaQQJPB-83" style="edgeStyle=orthogonalEdgeStyle;rounded=0;orthogonalLoop=1;jettySize=auto;html=1;exitX=0.5;exitY=1;exitDx=0;exitDy=0;entryX=0.5;entryY=0;entryDx=0;entryDy=0;" parent="1" source="02BFiXAFzsQtkcaQQJPB-82" target="02BFiXAFzsQtkcaQQJPB-74" edge="1">
                    <mxGeometry relative="1" as="geometry"/>
                </mxCell>
                <mxCell id="02BFiXAFzsQtkcaQQJPB-82" value="&lt;span style=&quot;font-size: 11px;&quot;&gt;↑&lt;/span&gt;Monitors" style="shape=process;whiteSpace=wrap;html=1;backgroundOutline=1;" parent="1" vertex="1">
                    <mxGeometry x="510" y="600" width="80" height="40" as="geometry"/>
                </mxCell>
                <mxCell id="02BFiXAFzsQtkcaQQJPB-86" style="edgeStyle=orthogonalEdgeStyle;rounded=0;orthogonalLoop=1;jettySize=auto;html=1;exitX=0.5;exitY=0;exitDx=0;exitDy=0;entryX=0.5;entryY=1;entryDx=0;entryDy=0;" parent="1" source="02BFiXAFzsQtkcaQQJPB-84" target="02BFiXAFzsQtkcaQQJPB-20" edge="1">
                    <mxGeometry relative="1" as="geometry"/>
                </mxCell>
                <mxCell id="02BFiXAFzsQtkcaQQJPB-84" value="&lt;span style=&quot;font-size: 11px;&quot;&gt;↓&lt;/span&gt;OnChange&lt;div&gt;(Trigger)&lt;/div&gt;" style="shape=process;whiteSpace=wrap;html=1;backgroundOutline=1;" parent="1" vertex="1">
                    <mxGeometry x="645" y="600" width="90" height="40" as="geometry"/>
                </mxCell>
                <mxCell id="02BFiXAFzsQtkcaQQJPB-89" style="edgeStyle=orthogonalEdgeStyle;rounded=0;orthogonalLoop=1;jettySize=auto;html=1;exitX=0.5;exitY=0;exitDx=0;exitDy=0;entryX=1;entryY=0.5;entryDx=0;entryDy=0;" parent="1" source="02BFiXAFzsQtkcaQQJPB-87" target="02BFiXAFzsQtkcaQQJPB-1" edge="1">
                    <mxGeometry relative="1" as="geometry"/>
                </mxCell>
                <mxCell id="02BFiXAFzsQtkcaQQJPB-87" value="&lt;div&gt;&lt;span style=&quot;font-size: 11px; background-color: transparent; color: light-dark(rgb(0, 0, 0), rgb(255, 255, 255));&quot;&gt;↓&lt;/span&gt;OneShot&lt;/div&gt;(Restart)" style="shape=process;whiteSpace=wrap;html=1;backgroundOutline=1;" parent="1" vertex="1">
                    <mxGeometry x="650" y="380" width="80" height="40" as="geometry"/>
                </mxCell>
                <mxCell id="02BFiXAFzsQtkcaQQJPB-94" value="container.service" style="rounded=1;whiteSpace=wrap;html=1;fillColor=#f5f5f5;strokeColor=#666666;fontColor=#333333;" parent="1" vertex="1">
                    <mxGeometry x="-170" y="310" width="160" height="60" as="geometry"/>
                </mxCell>
                <mxCell id="02BFiXAFzsQtkcaQQJPB-103" style="edgeStyle=orthogonalEdgeStyle;rounded=0;orthogonalLoop=1;jettySize=auto;html=1;exitX=0.5;exitY=0;exitDx=0;exitDy=0;entryX=0.5;entryY=1;entryDx=0;entryDy=0;" parent="1" source="02BFiXAFzsQtkcaQQJPB-95" target="02BFiXAFzsQtkcaQQJPB-96" edge="1">
                    <mxGeometry relative="1" as="geometry"/>
                </mxCell>
                <mxCell id="02BFiXAFzsQtkcaQQJPB-95" value="SERVICENAME.target&lt;div&gt;(individual quadlet)&lt;/div&gt;" style="rounded=1;whiteSpace=wrap;html=1;fillColor=#d5e8d4;strokeColor=#82b366;" parent="1" vertex="1">
                    <mxGeometry x="-90" y="695" width="160" height="60" as="geometry"/>
                </mxCell>
                <mxCell id="02BFiXAFzsQtkcaQQJPB-102" style="edgeStyle=orthogonalEdgeStyle;rounded=0;orthogonalLoop=1;jettySize=auto;html=1;exitX=0.5;exitY=0;exitDx=0;exitDy=0;entryX=0.5;entryY=1;entryDx=0;entryDy=0;" parent="1" source="02BFiXAFzsQtkcaQQJPB-96" target="02BFiXAFzsQtkcaQQJPB-94" edge="1">
                    <mxGeometry relative="1" as="geometry"/>
                </mxCell>
                <mxCell id="LZFOruKKCX2UdWkoUHdO-17" style="edgeStyle=orthogonalEdgeStyle;rounded=0;orthogonalLoop=1;jettySize=auto;html=1;exitX=1;exitY=0.5;exitDx=0;exitDy=0;entryX=0.25;entryY=1;entryDx=0;entryDy=0;" parent="1" source="02BFiXAFzsQtkcaQQJPB-96" target="02BFiXAFzsQtkcaQQJPB-17" edge="1">
                    <mxGeometry relative="1" as="geometry"/>
                </mxCell>
                <mxCell id="LZFOruKKCX2UdWkoUHdO-18" style="edgeStyle=orthogonalEdgeStyle;rounded=0;orthogonalLoop=1;jettySize=auto;html=1;exitX=1;exitY=0.5;exitDx=0;exitDy=0;entryX=0.5;entryY=1;entryDx=0;entryDy=0;" parent="1" source="02BFiXAFzsQtkcaQQJPB-96" target="LZFOruKKCX2UdWkoUHdO-2" edge="1">
                    <mxGeometry relative="1" as="geometry"/>
                </mxCell>
                <mxCell id="02BFiXAFzsQtkcaQQJPB-96" value="&lt;div&gt;&lt;font style=&quot;font-size: 11px;&quot;&gt;&lt;span style=&quot;background-color: transparent; color: light-dark(rgb(0, 0, 0), rgb(255, 255, 255));&quot;&gt;↓&lt;/span&gt;WantedBy (Start)&lt;/font&gt;&lt;/div&gt;&lt;div&gt;&lt;font style=&quot;font-size: 11px;&quot;&gt;&lt;span style=&quot;background-color: transparent; color: light-dark(rgb(0, 0, 0), rgb(255, 255, 255));&quot;&gt;↓&lt;/span&gt;PartOf (Stop/Restart)&lt;/font&gt;&lt;/div&gt;" style="shape=process;whiteSpace=wrap;html=1;backgroundOutline=1;" parent="1" vertex="1">
                    <mxGeometry x="-82" y="600" width="145" height="40" as="geometry"/>
                </mxCell>
                <mxCell id="02BFiXAFzsQtkcaQQJPB-101" style="edgeStyle=orthogonalEdgeStyle;rounded=0;orthogonalLoop=1;jettySize=auto;html=1;exitX=0.5;exitY=1;exitDx=0;exitDy=0;entryX=0.5;entryY=0;entryDx=0;entryDy=0;" parent="1" source="02BFiXAFzsQtkcaQQJPB-97" target="02BFiXAFzsQtkcaQQJPB-94" edge="1">
                    <mxGeometry relative="1" as="geometry"/>
                </mxCell>
                <mxCell id="02BFiXAFzsQtkcaQQJPB-97" value="&lt;div&gt;&lt;font style=&quot;font-size: 11px;&quot;&gt;&lt;span style=&quot;background-color: transparent; color: light-dark(rgb(0, 0, 0), rgb(255, 255, 255));&quot;&gt;↓&lt;/span&gt;WantedBy (Start)&lt;/font&gt;&lt;/div&gt;&lt;div&gt;&lt;font style=&quot;font-size: 11px;&quot;&gt;&lt;span style=&quot;background-color: transparent; color: light-dark(rgb(0, 0, 0), rgb(255, 255, 255));&quot;&gt;↓&lt;/span&gt;PartOf (Stop/Restart)&lt;/font&gt;&lt;/div&gt;" style="shape=process;whiteSpace=wrap;html=1;backgroundOutline=1;" parent="1" vertex="1">
                    <mxGeometry x="-33" y="190" width="150" height="40" as="geometry"/>
                </mxCell>
                <mxCell id="JThwmtuQTnnpR4SAIkMF-7" style="edgeStyle=orthogonalEdgeStyle;rounded=0;orthogonalLoop=1;jettySize=auto;html=1;exitX=0.25;exitY=0;exitDx=0;exitDy=0;entryX=0.75;entryY=1;entryDx=0;entryDy=0;dashed=1;" parent="1" source="JThwmtuQTnnpR4SAIkMF-2" target="02BFiXAFzsQtkcaQQJPB-94" edge="1">
                    <mxGeometry relative="1" as="geometry"/>
                </mxCell>
                <mxCell id="LZFOruKKCX2UdWkoUHdO-23" style="edgeStyle=orthogonalEdgeStyle;rounded=0;orthogonalLoop=1;jettySize=auto;html=1;exitX=0.75;exitY=1;exitDx=0;exitDy=0;entryX=0.25;entryY=0;entryDx=0;entryDy=0;dashed=1;" parent="1" source="JThwmtuQTnnpR4SAIkMF-2" target="LZFOruKKCX2UdWkoUHdO-2" edge="1">
                    <mxGeometry relative="1" as="geometry"/>
                </mxCell>
                <mxCell id="LZFOruKKCX2UdWkoUHdO-31" style="edgeStyle=orthogonalEdgeStyle;rounded=0;orthogonalLoop=1;jettySize=auto;html=1;exitX=0;exitY=0.5;exitDx=0;exitDy=0;entryX=1;entryY=0.5;entryDx=0;entryDy=0;dashed=1;" parent="1" source="JThwmtuQTnnpR4SAIkMF-2" target="LZFOruKKCX2UdWkoUHdO-30" edge="1">
                    <mxGeometry relative="1" as="geometry"/>
                </mxCell>
                <mxCell id="JThwmtuQTnnpR4SAIkMF-2" value="&lt;font style=&quot;font-size: 10px;&quot;&gt;systemd.generator&lt;/font&gt;&lt;div&gt;&lt;font style=&quot;font-size: 10px;&quot;&gt;Generates&lt;/font&gt;&lt;/div&gt;" style="shape=process;whiteSpace=wrap;html=1;backgroundOutline=1;fillColor=#f8cecc;strokeColor=#b85450;dashed=1;fillStyle=solid;" parent="1" vertex="1">
                    <mxGeometry x="-60" y="415" width="110" height="35" as="geometry"/>
                </mxCell>
                <mxCell id="LZFOruKKCX2UdWkoUHdO-21" style="edgeStyle=orthogonalEdgeStyle;rounded=0;orthogonalLoop=1;jettySize=auto;html=1;exitX=0.5;exitY=1;exitDx=0;exitDy=0;entryX=0.5;entryY=0;entryDx=0;entryDy=0;" parent="1" source="LZFOruKKCX2UdWkoUHdO-1" target="LZFOruKKCX2UdWkoUHdO-3" edge="1">
                    <mxGeometry relative="1" as="geometry"/>
                </mxCell>
                <mxCell id="LZFOruKKCX2UdWkoUHdO-1" value="quadlets-distrobox.target&lt;div&gt;(distrobox quadlets)&lt;/div&gt;" style="rounded=1;whiteSpace=wrap;html=1;fillColor=#d5e8d4;strokeColor=#82b366;" parent="1" vertex="1">
                    <mxGeometry x="50" y="320" width="160" height="60" as="geometry"/>
                </mxCell>
                <mxCell id="LZFOruKKCX2UdWkoUHdO-2" value="container.service&lt;div&gt;(&lt;span style=&quot;background-color: transparent; color: light-dark(rgb(51, 51, 51), rgb(193, 193, 193));&quot;&gt;distrobox)&lt;/span&gt;&lt;/div&gt;" style="rounded=1;whiteSpace=wrap;html=1;fillColor=#f5f5f5;strokeColor=#666666;fontColor=#333333;" parent="1" vertex="1">
                    <mxGeometry x="30" y="500" width="160" height="60" as="geometry"/>
                </mxCell>
                <mxCell id="clTJth1wTMa9_6b9ZqW7-3" style="edgeStyle=orthogonalEdgeStyle;rounded=0;orthogonalLoop=1;jettySize=auto;html=1;exitX=0.5;exitY=1;exitDx=0;exitDy=0;entryX=0.75;entryY=0;entryDx=0;entryDy=0;" parent="1" source="LZFOruKKCX2UdWkoUHdO-3" target="LZFOruKKCX2UdWkoUHdO-2" edge="1">
                    <mxGeometry relative="1" as="geometry"/>
                </mxCell>
                <mxCell id="LZFOruKKCX2UdWkoUHdO-3" value="&lt;div&gt;&lt;font style=&quot;font-size: 11px;&quot;&gt;&lt;span style=&quot;background-color: transparent; color: light-dark(rgb(0, 0, 0), rgb(255, 255, 255));&quot;&gt;↓&lt;/span&gt;WantedBy (Start)&lt;/font&gt;&lt;/div&gt;&lt;div&gt;&lt;font style=&quot;font-size: 11px;&quot;&gt;&lt;span style=&quot;background-color: transparent; color: light-dark(rgb(0, 0, 0), rgb(255, 255, 255));&quot;&gt;↓&lt;/span&gt;PartOf (Stop/Restart)&lt;/font&gt;&lt;/div&gt;" style="shape=process;whiteSpace=wrap;html=1;backgroundOutline=1;" parent="1" vertex="1">
                    <mxGeometry x="77" y="420" width="145" height="40" as="geometry"/>
                </mxCell>
                <mxCell id="LZFOruKKCX2UdWkoUHdO-25" value="&lt;span style=&quot;color: rgb(51, 51, 51);&quot;&gt;container&lt;/span&gt;.container" style="rounded=1;whiteSpace=wrap;html=1;fillColor=#e1d5e7;strokeColor=#9673a6;dashed=1;fillStyle=solid;" parent="1" vertex="1">
                    <mxGeometry x="-216" y="495" width="108" height="30" as="geometry"/>
                </mxCell>
                <mxCell id="LZFOruKKCX2UdWkoUHdO-32" style="edgeStyle=orthogonalEdgeStyle;rounded=0;orthogonalLoop=1;jettySize=auto;html=1;exitX=0.5;exitY=1;exitDx=0;exitDy=0;entryX=0.5;entryY=0;entryDx=0;entryDy=0;dashed=1;" parent="1" source="LZFOruKKCX2UdWkoUHdO-30" target="LZFOruKKCX2UdWkoUHdO-25" edge="1">
                    <mxGeometry relative="1" as="geometry"/>
                </mxCell>
                <mxCell id="LZFOruKKCX2UdWkoUHdO-30" value="From" style="rhombus;whiteSpace=wrap;html=1;dashed=1;" parent="1" vertex="1">
                    <mxGeometry x="-207" y="413.5" width="90" height="40" as="geometry"/>
                </mxCell>
                <mxCell id="xISB6FfP2zMEPj1HDlt8-13" value="&lt;span style=&quot;text-align: center; font-size: 11px; color: rgb(0, 0, 0); background-color: rgb(251, 251, 251);&quot;&gt;↓&lt;/span&gt;&lt;span style=&quot;text-align: center; font-size: 11px; color: rgb(0, 0, 0); background-color: rgb(251, 251, 251);&quot;&gt;↑ : Indicates which unit has that option&lt;/span&gt;" style="text;strokeColor=none;fillColor=none;align=left;verticalAlign=middle;spacingLeft=4;spacingRight=4;overflow=hidden;points=[[0,0.5],[1,0.5]];portConstraint=eastwest;rotatable=0;whiteSpace=wrap;html=1;" parent="1" vertex="1">
                    <mxGeometry x="445" y="325" width="210" height="30" as="geometry"/>
                </mxCell>
            </root>
        </mxGraphModel>
    </diagram>
</mxfile>